<mxfile host="app.diagrams.net" modified="2024-03-21T21:03:36.315Z" agent="Mozilla/5.0 (Windows NT 10.0; Win64; x64) AppleWebKit/537.36 (KHTML, like Gecko) Chrome/122.0.0.0 Safari/537.36" etag="t2OtcsOQuw-sikv3Tg5A" version="24.0.7" type="device">
  <diagram name="Page-1" id="SU60sq1JpARpPboAShl4">
    <mxGraphModel dx="1980" dy="1284" grid="1" gridSize="10" guides="1" tooltips="1" connect="1" arrows="1" fold="1" page="1" pageScale="1" pageWidth="1100" pageHeight="850" math="0" shadow="0">
      <root>
        <mxCell id="0" />
        <mxCell id="1" parent="0" />
        <mxCell id="vg0kWMwHj4yGYG_CBvBX-8" style="edgeStyle=orthogonalEdgeStyle;rounded=0;orthogonalLoop=1;jettySize=auto;html=1;exitX=1;exitY=0.5;exitDx=0;exitDy=0;entryX=0;entryY=0.5;entryDx=0;entryDy=0;strokeWidth=2;" parent="1" source="pmOOVxwG420c-32HkS5u-1" target="vg0kWMwHj4yGYG_CBvBX-7" edge="1">
          <mxGeometry relative="1" as="geometry" />
        </mxCell>
        <mxCell id="pmOOVxwG420c-32HkS5u-1" value="&lt;font size=&quot;1&quot; face=&quot;Times New Roman&quot;&gt;&lt;span style=&quot;font-size: 16px;&quot;&gt;Categorize Public/Private/&lt;/span&gt;&lt;/font&gt;&lt;div&gt;&lt;font size=&quot;1&quot; face=&quot;Times New Roman&quot;&gt;&lt;span style=&quot;font-size: 16px;&quot;&gt;Partner APIs&lt;/span&gt;&lt;/font&gt;&lt;/div&gt;" style="rounded=0;whiteSpace=wrap;html=1;strokeWidth=2;container=0;fontStyle=0;fillColor=#e3c800;strokeColor=#B09500;fontColor=#000000;" parent="1" vertex="1">
          <mxGeometry x="350" y="390" width="100" height="60" as="geometry" />
        </mxCell>
        <mxCell id="pmOOVxwG420c-32HkS5u-2" value="&lt;font size=&quot;1&quot; face=&quot;Times New Roman&quot;&gt;&lt;span style=&quot;font-size: 16px;&quot;&gt;&lt;br&gt;&lt;/span&gt;&lt;/font&gt;" style="rounded=0;whiteSpace=wrap;html=1;strokeWidth=2;container=0;fontStyle=0" parent="1" vertex="1">
          <mxGeometry x="640" y="390" width="180" height="190" as="geometry" />
        </mxCell>
        <mxCell id="pmOOVxwG420c-32HkS5u-4" value="&lt;span style=&quot;border-color: var(--border-color); color: rgb(0, 0, 0); font-family: &amp;quot;Times New Roman&amp;quot;; font-style: normal; font-variant-ligatures: normal; font-variant-caps: normal; letter-spacing: normal; orphans: 2; text-align: center; text-indent: 0px; text-transform: none; widows: 2; word-spacing: 0px; -webkit-text-stroke-width: 0px; background-color: rgb(251, 251, 251); text-decoration-thickness: initial; text-decoration-style: initial; text-decoration-color: initial; font-size: 16px;&quot;&gt;Antipattern &lt;br&gt;Detection Tool&lt;br&gt;&lt;/span&gt;" style="text;whiteSpace=wrap;html=1;container=0;strokeWidth=2;fontStyle=0" parent="1" vertex="1">
          <mxGeometry x="665" y="340" width="135" height="40" as="geometry" />
        </mxCell>
        <mxCell id="HHuTXF0BT0n3mswBOlXm-3" value="" style="endArrow=classic;html=1;rounded=0;strokeWidth=2;entryX=0;entryY=0.5;entryDx=0;entryDy=0;fontStyle=0" parent="1" target="SRh0s-oIHB4yDXquQM8V-11" edge="1">
          <mxGeometry width="50" height="50" relative="1" as="geometry">
            <mxPoint x="560" y="420" as="sourcePoint" />
            <mxPoint x="830" y="330" as="targetPoint" />
            <Array as="points">
              <mxPoint x="600" y="420" />
              <mxPoint x="600" y="330" />
            </Array>
          </mxGeometry>
        </mxCell>
        <mxCell id="HHuTXF0BT0n3mswBOlXm-4" value="" style="endArrow=classic;html=1;rounded=0;entryX=0;entryY=0.5;entryDx=0;entryDy=0;strokeWidth=2;fontStyle=0" parent="1" target="pmOOVxwG420c-32HkS5u-2" edge="1">
          <mxGeometry width="50" height="50" relative="1" as="geometry">
            <mxPoint x="600" y="420" as="sourcePoint" />
            <mxPoint x="610" y="460" as="targetPoint" />
            <Array as="points">
              <mxPoint x="600" y="485" />
            </Array>
          </mxGeometry>
        </mxCell>
        <mxCell id="HHuTXF0BT0n3mswBOlXm-7" value="" style="endArrow=classic;html=1;rounded=0;entryX=0;entryY=0.5;entryDx=0;entryDy=0;exitX=1;exitY=0.5;exitDx=0;exitDy=0;strokeWidth=2;fontStyle=0" parent="1" source="SRh0s-oIHB4yDXquQM8V-11" edge="1">
          <mxGeometry width="50" height="50" relative="1" as="geometry">
            <mxPoint x="985" y="330" as="sourcePoint" />
            <mxPoint x="1020" y="420" as="targetPoint" />
            <Array as="points">
              <mxPoint x="990" y="330" />
              <mxPoint x="990" y="420" />
            </Array>
          </mxGeometry>
        </mxCell>
        <mxCell id="HHuTXF0BT0n3mswBOlXm-9" value="" style="endArrow=none;html=1;rounded=0;strokeWidth=2;fontStyle=0" parent="1" source="pmOOVxwG420c-32HkS5u-2" edge="1">
          <mxGeometry width="50" height="50" relative="1" as="geometry">
            <mxPoint x="1000" y="560" as="sourcePoint" />
            <mxPoint x="990" y="420" as="targetPoint" />
            <Array as="points">
              <mxPoint x="990" y="485" />
            </Array>
          </mxGeometry>
        </mxCell>
        <mxCell id="HHuTXF0BT0n3mswBOlXm-25" value="&lt;font style=&quot;font-size: 15px;&quot; face=&quot;Times New Roman&quot;&gt;&lt;span style=&quot;&quot;&gt;Syntactical&amp;nbsp;&lt;br&gt;Analysis&lt;br&gt;&lt;/span&gt;&lt;/font&gt;" style="rounded=0;whiteSpace=wrap;html=1;strokeWidth=2;container=0;fontStyle=0" parent="1" vertex="1">
          <mxGeometry x="650" y="430" width="160" height="40" as="geometry" />
        </mxCell>
        <mxCell id="HHuTXF0BT0n3mswBOlXm-26" value="&lt;font style=&quot;&quot; face=&quot;Times New Roman&quot;&gt;&lt;span style=&quot;&quot;&gt;&lt;font style=&quot;font-size: 15px;&quot;&gt;Heuristics&lt;/font&gt;&lt;br&gt;&lt;/span&gt;&lt;/font&gt;" style="rounded=0;whiteSpace=wrap;html=1;strokeWidth=2;container=0;fontStyle=0" parent="1" vertex="1">
          <mxGeometry x="650" y="395" width="160" height="25" as="geometry" />
        </mxCell>
        <mxCell id="HHuTXF0BT0n3mswBOlXm-27" value="&lt;font style=&quot;font-size: 11px;&quot; face=&quot;Times New Roman&quot;&gt;&lt;span style=&quot;&quot;&gt;&lt;br&gt;&lt;/span&gt;&lt;/font&gt;" style="rounded=0;whiteSpace=wrap;html=1;strokeWidth=2;container=0;fontStyle=0" parent="1" vertex="1">
          <mxGeometry x="650" y="480" width="160" height="90" as="geometry" />
        </mxCell>
        <mxCell id="HHuTXF0BT0n3mswBOlXm-28" value="&lt;font style=&quot;&quot; face=&quot;Times New Roman&quot;&gt;&lt;span style=&quot;&quot;&gt;&lt;font style=&quot;font-size: 15px;&quot;&gt;LDA Topic Model&lt;/font&gt;&lt;br&gt;&lt;/span&gt;&lt;/font&gt;" style="rounded=0;whiteSpace=wrap;html=1;strokeWidth=2;container=0;fontStyle=0" parent="1" vertex="1">
          <mxGeometry x="660" y="515" width="140" height="20" as="geometry" />
        </mxCell>
        <mxCell id="HHuTXF0BT0n3mswBOlXm-30" value="&lt;font style=&quot;&quot; face=&quot;Times New Roman&quot;&gt;&lt;span style=&quot;&quot;&gt;&lt;font style=&quot;font-size: 15px;&quot;&gt;Semantical Analysis&lt;/font&gt;&lt;br&gt;&lt;/span&gt;&lt;/font&gt;" style="rounded=0;whiteSpace=wrap;html=1;strokeWidth=2;container=0;fillColor=none;strokeColor=none;fontStyle=0" parent="1" vertex="1">
          <mxGeometry x="660" y="490" width="140" height="20" as="geometry" />
        </mxCell>
        <mxCell id="HHuTXF0BT0n3mswBOlXm-38" value="&lt;font size=&quot;1&quot; face=&quot;Times New Roman&quot;&gt;&lt;span style=&quot;font-size: 16px;&quot;&gt;Step 1&lt;/span&gt;&lt;/font&gt;" style="text;html=1;align=center;verticalAlign=middle;resizable=0;points=[];autosize=1;strokeColor=none;fillColor=none;container=0;strokeWidth=2;fontStyle=0" parent="1" vertex="1">
          <mxGeometry x="310" y="600" width="60" height="30" as="geometry" />
        </mxCell>
        <mxCell id="HHuTXF0BT0n3mswBOlXm-40" value="&lt;font size=&quot;1&quot; face=&quot;Times New Roman&quot;&gt;&lt;span style=&quot;font-size: 16px;&quot;&gt;Step 3&lt;/span&gt;&lt;/font&gt;" style="text;html=1;align=center;verticalAlign=middle;resizable=0;points=[];autosize=1;strokeColor=none;fillColor=none;container=0;strokeWidth=2;fontStyle=0" parent="1" vertex="1">
          <mxGeometry x="885" y="590" width="60" height="30" as="geometry" />
        </mxCell>
        <mxCell id="HHuTXF0BT0n3mswBOlXm-41" value="&lt;font size=&quot;1&quot; face=&quot;Times New Roman&quot;&gt;&lt;span style=&quot;font-size: 16px;&quot;&gt;Step 4&lt;/span&gt;&lt;/font&gt;" style="text;html=1;align=center;verticalAlign=middle;resizable=0;points=[];autosize=1;strokeColor=none;fillColor=none;container=0;strokeWidth=2;fontStyle=0" parent="1" vertex="1">
          <mxGeometry x="1060" y="590" width="60" height="30" as="geometry" />
        </mxCell>
        <mxCell id="HHuTXF0BT0n3mswBOlXm-57" value="&lt;font size=&quot;1&quot; face=&quot;Times New Roman&quot;&gt;&lt;span style=&quot;font-size: 16px;&quot;&gt;Step 2&lt;br&gt;&lt;/span&gt;&lt;/font&gt;" style="text;html=1;align=center;verticalAlign=middle;resizable=0;points=[];autosize=1;strokeColor=none;fillColor=none;container=0;strokeWidth=2;fontStyle=0" parent="1" vertex="1">
          <mxGeometry x="702.5" y="590" width="60" height="30" as="geometry" />
        </mxCell>
        <mxCell id="HHuTXF0BT0n3mswBOlXm-63" value="&lt;font style=&quot;&quot; face=&quot;Times New Roman&quot;&gt;&lt;span style=&quot;&quot;&gt;&lt;font style=&quot;font-size: 15px;&quot;&gt;Cosine Similarity&lt;/font&gt;&lt;br&gt;&lt;/span&gt;&lt;/font&gt;" style="rounded=0;whiteSpace=wrap;html=1;strokeWidth=2;container=0;fontStyle=0" parent="1" vertex="1">
          <mxGeometry x="660" y="540" width="140" height="20" as="geometry" />
        </mxCell>
        <mxCell id="SRh0s-oIHB4yDXquQM8V-6" value="" style="endArrow=none;html=1;rounded=0;strokeWidth=2;fontStyle=0" parent="1" edge="1">
          <mxGeometry width="50" height="50" relative="1" as="geometry">
            <mxPoint x="200" y="590" as="sourcePoint" />
            <mxPoint x="560" y="590" as="targetPoint" />
          </mxGeometry>
        </mxCell>
        <mxCell id="SRh0s-oIHB4yDXquQM8V-7" value="" style="endArrow=none;html=1;rounded=0;strokeWidth=2;fontStyle=0" parent="1" edge="1">
          <mxGeometry width="50" height="50" relative="1" as="geometry">
            <mxPoint x="630" y="590" as="sourcePoint" />
            <mxPoint x="830" y="590" as="targetPoint" />
          </mxGeometry>
        </mxCell>
        <mxCell id="SRh0s-oIHB4yDXquQM8V-9" value="" style="endArrow=none;html=1;rounded=0;strokeWidth=2;fontStyle=0" parent="1" edge="1">
          <mxGeometry width="50" height="50" relative="1" as="geometry">
            <mxPoint x="840" y="590" as="sourcePoint" />
            <mxPoint x="980" y="590" as="targetPoint" />
          </mxGeometry>
        </mxCell>
        <mxCell id="SRh0s-oIHB4yDXquQM8V-10" value="" style="endArrow=none;html=1;rounded=0;strokeWidth=2;fontStyle=0" parent="1" edge="1">
          <mxGeometry width="50" height="50" relative="1" as="geometry">
            <mxPoint x="1010" y="590" as="sourcePoint" />
            <mxPoint x="1150" y="590" as="targetPoint" />
          </mxGeometry>
        </mxCell>
        <mxCell id="SRh0s-oIHB4yDXquQM8V-11" value="&lt;span style=&quot;border-color: var(--border-color); font-family: &amp;quot;Times New Roman&amp;quot;; font-size: 16px;&quot;&gt;Manual Validation&lt;/span&gt;&lt;font size=&quot;1&quot; face=&quot;Times New Roman&quot;&gt;&lt;span style=&quot;font-size: 16px;&quot;&gt;&lt;br&gt;&lt;/span&gt;&lt;/font&gt;" style="rounded=0;whiteSpace=wrap;html=1;strokeWidth=2;container=0;fontStyle=0" parent="1" vertex="1">
          <mxGeometry x="840" y="300" width="120" height="60" as="geometry" />
        </mxCell>
        <mxCell id="vg0kWMwHj4yGYG_CBvBX-4" value="" style="edgeStyle=orthogonalEdgeStyle;rounded=0;orthogonalLoop=1;jettySize=auto;html=1;strokeWidth=2;" parent="1" source="vg0kWMwHj4yGYG_CBvBX-2" target="pmOOVxwG420c-32HkS5u-1" edge="1">
          <mxGeometry relative="1" as="geometry" />
        </mxCell>
        <mxCell id="vg0kWMwHj4yGYG_CBvBX-2" value="&lt;font size=&quot;1&quot; face=&quot;Times New Roman&quot;&gt;&lt;span style=&quot;font-size: 16px;&quot;&gt;REST&amp;nbsp;&lt;/span&gt;&lt;/font&gt;&lt;div&gt;&lt;font size=&quot;1&quot; face=&quot;Times New Roman&quot;&gt;&lt;span style=&quot;font-size: 16px;&quot;&gt;APIs&lt;/span&gt;&lt;/font&gt;&lt;/div&gt;" style="rounded=0;whiteSpace=wrap;html=1;strokeWidth=2;container=0;fontStyle=0" parent="1" vertex="1">
          <mxGeometry x="200" y="240" width="100" height="45" as="geometry" />
        </mxCell>
        <mxCell id="vg0kWMwHj4yGYG_CBvBX-7" value="&lt;font size=&quot;1&quot; face=&quot;Times New Roman&quot;&gt;&lt;span style=&quot;font-size: 16px;&quot;&gt;Pre-processing&lt;/span&gt;&lt;/font&gt;" style="rounded=0;whiteSpace=wrap;html=1;strokeWidth=2;container=0;fontStyle=0" parent="1" vertex="1">
          <mxGeometry x="470" y="390" width="90" height="60" as="geometry" />
        </mxCell>
        <mxCell id="vg0kWMwHj4yGYG_CBvBX-13" value="" style="edgeStyle=orthogonalEdgeStyle;rounded=0;orthogonalLoop=1;jettySize=auto;html=1;strokeWidth=2;" parent="1" source="vg0kWMwHj4yGYG_CBvBX-10" target="vg0kWMwHj4yGYG_CBvBX-11" edge="1">
          <mxGeometry relative="1" as="geometry" />
        </mxCell>
        <mxCell id="vg0kWMwHj4yGYG_CBvBX-10" value="&lt;span style=&quot;border-color: var(--border-color); font-family: &amp;quot;Times New Roman&amp;quot;; font-size: 16px;&quot;&gt;Result Analysis&lt;/span&gt;&lt;font size=&quot;1&quot; face=&quot;Times New Roman&quot;&gt;&lt;span style=&quot;font-size: 16px;&quot;&gt;&lt;br&gt;&lt;/span&gt;&lt;/font&gt;" style="rounded=0;whiteSpace=wrap;html=1;strokeWidth=2;container=0;fontStyle=0" parent="1" vertex="1">
          <mxGeometry x="1020" y="390" width="100" height="60" as="geometry" />
        </mxCell>
        <mxCell id="vg0kWMwHj4yGYG_CBvBX-11" value="&lt;span style=&quot;border-color: var(--border-color); font-family: &amp;quot;Times New Roman&amp;quot;; font-size: 16px;&quot;&gt;Recommendation System&lt;/span&gt;&lt;font size=&quot;1&quot; face=&quot;Times New Roman&quot;&gt;&lt;span style=&quot;font-size: 16px;&quot;&gt;&lt;br&gt;&lt;/span&gt;&lt;/font&gt;" style="rounded=0;whiteSpace=wrap;html=1;strokeWidth=2;container=0;fontStyle=0;fillColor=#e3c800;strokeColor=#B09500;fontColor=#000000;" parent="1" vertex="1">
          <mxGeometry x="1150" y="390" width="120" height="60" as="geometry" />
        </mxCell>
        <mxCell id="vg0kWMwHj4yGYG_CBvBX-14" value="&lt;font size=&quot;1&quot; face=&quot;Times New Roman&quot;&gt;&lt;span style=&quot;font-size: 16px;&quot;&gt;Step 5&lt;/span&gt;&lt;/font&gt;" style="text;html=1;align=center;verticalAlign=middle;resizable=0;points=[];autosize=1;strokeColor=none;fillColor=none;container=0;strokeWidth=2;fontStyle=0" parent="1" vertex="1">
          <mxGeometry x="1190" y="590" width="60" height="30" as="geometry" />
        </mxCell>
        <mxCell id="vg0kWMwHj4yGYG_CBvBX-15" value="" style="endArrow=none;html=1;rounded=0;strokeWidth=2;fontStyle=0" parent="1" edge="1">
          <mxGeometry width="50" height="50" relative="1" as="geometry">
            <mxPoint x="1160" y="590" as="sourcePoint" />
            <mxPoint x="1270" y="590" as="targetPoint" />
          </mxGeometry>
        </mxCell>
        <mxCell id="PCIvJfl5rsrQEbTtggmR-2" value="" style="edgeStyle=orthogonalEdgeStyle;rounded=0;orthogonalLoop=1;jettySize=auto;html=1;strokeWidth=2;" parent="1" source="PCIvJfl5rsrQEbTtggmR-1" target="pmOOVxwG420c-32HkS5u-1" edge="1">
          <mxGeometry relative="1" as="geometry" />
        </mxCell>
        <mxCell id="PCIvJfl5rsrQEbTtggmR-1" value="&lt;font face=&quot;Times New Roman&quot;&gt;&lt;span style=&quot;font-size: 16px;&quot;&gt;GraphQL&lt;/span&gt;&lt;/font&gt;&lt;br&gt;&lt;div&gt;&lt;font size=&quot;1&quot; face=&quot;Times New Roman&quot;&gt;&lt;span style=&quot;font-size: 16px;&quot;&gt;APIs&lt;/span&gt;&lt;/font&gt;&lt;/div&gt;" style="rounded=0;whiteSpace=wrap;html=1;strokeWidth=2;container=0;fontStyle=0" parent="1" vertex="1">
          <mxGeometry x="-990" y="-80" width="100" height="45" as="geometry" />
        </mxCell>
      </root>
    </mxGraphModel>
  </diagram>
</mxfile>
